<mxfile host="Electron" agent="Mozilla/5.0 (Windows NT 10.0; Win64; x64) AppleWebKit/537.36 (KHTML, like Gecko) draw.io/24.7.5 Chrome/126.0.6478.183 Electron/31.3.0 Safari/537.36" version="24.7.5">
  <diagram id="C5RBs43oDa-KdzZeNtuy" name="Page-1">
    <mxGraphModel dx="2876" dy="2375" grid="1" gridSize="10" guides="1" tooltips="1" connect="1" arrows="0" fold="1" page="1" pageScale="1" pageWidth="827" pageHeight="1169" background="none" math="0" shadow="1">
      <root>
        <mxCell id="WIyWlLk6GJQsqaUBKTNV-0" />
        <mxCell id="WIyWlLk6GJQsqaUBKTNV-1" parent="WIyWlLk6GJQsqaUBKTNV-0" />
        <mxCell id="WIyWlLk6GJQsqaUBKTNV-3" value="cliente_empresa" style="rounded=1;whiteSpace=wrap;html=1;fontSize=12;glass=0;strokeWidth=1;shadow=0;fillColor=#0050ef;fontColor=#ffffff;strokeColor=#001DBC;" parent="WIyWlLk6GJQsqaUBKTNV-1" vertex="1">
          <mxGeometry x="160" y="200" width="120" height="40" as="geometry" />
        </mxCell>
        <mxCell id="WIyWlLk6GJQsqaUBKTNV-4" value="" style="rounded=0;html=1;jettySize=auto;orthogonalLoop=1;fontSize=11;endArrow=block;endFill=1;endSize=8;strokeWidth=4;shadow=0;labelBackgroundColor=none;edgeStyle=orthogonalEdgeStyle;exitX=1;exitY=0.5;exitDx=0;exitDy=0;fillColor=#b1ddf0;strokeColor=#10739e;" parent="WIyWlLk6GJQsqaUBKTNV-1" source="WIyWlLk6GJQsqaUBKTNV-7" target="WIyWlLk6GJQsqaUBKTNV-10" edge="1">
          <mxGeometry y="20" relative="1" as="geometry">
            <mxPoint as="offset" />
            <Array as="points">
              <mxPoint x="850" y="220" />
              <mxPoint x="850" y="220" />
            </Array>
          </mxGeometry>
        </mxCell>
        <mxCell id="WIyWlLk6GJQsqaUBKTNV-5" value="" style="edgeStyle=orthogonalEdgeStyle;rounded=0;html=1;jettySize=auto;orthogonalLoop=1;fontSize=11;endArrow=block;endFill=1;endSize=8;strokeWidth=4;shadow=0;labelBackgroundColor=none;entryX=1;entryY=0.5;entryDx=0;entryDy=0;exitX=0.5;exitY=1;exitDx=0;exitDy=0;fillColor=#b1ddf0;strokeColor=#10739e;" parent="WIyWlLk6GJQsqaUBKTNV-1" source="WIyWlLk6GJQsqaUBKTNV-11" target="MHmjIFbe15PuZ7v1ZE7H-7" edge="1">
          <mxGeometry y="10" relative="1" as="geometry">
            <mxPoint as="offset" />
            <mxPoint x="900" y="340" as="sourcePoint" />
            <mxPoint x="1030" y="340" as="targetPoint" />
            <Array as="points">
              <mxPoint x="1181" y="340" />
              <mxPoint x="960" y="340" />
              <mxPoint x="960" y="430" />
            </Array>
          </mxGeometry>
        </mxCell>
        <mxCell id="WIyWlLk6GJQsqaUBKTNV-6" value="Atendido" style="rhombus;whiteSpace=wrap;html=1;shadow=0;fontFamily=Helvetica;fontSize=12;align=center;strokeWidth=1;spacing=6;spacingTop=-4;fillColor=#60a917;fontColor=#ffffff;strokeColor=#2D7600;" parent="WIyWlLk6GJQsqaUBKTNV-1" vertex="1">
          <mxGeometry x="413.5" y="180" width="100" height="80" as="geometry" />
        </mxCell>
        <mxCell id="WIyWlLk6GJQsqaUBKTNV-7" value="Vendedor" style="rounded=1;whiteSpace=wrap;html=1;fontSize=12;glass=0;strokeWidth=1;shadow=0;fillColor=#0050ef;fontColor=#ffffff;strokeColor=#001DBC;" parent="WIyWlLk6GJQsqaUBKTNV-1" vertex="1">
          <mxGeometry x="640" y="200" width="120" height="40" as="geometry" />
        </mxCell>
        <mxCell id="WIyWlLk6GJQsqaUBKTNV-8" value="" style="rounded=0;html=1;jettySize=auto;orthogonalLoop=1;fontSize=11;endArrow=block;endFill=1;endSize=8;strokeWidth=4;shadow=0;labelBackgroundColor=none;edgeStyle=orthogonalEdgeStyle;fillColor=#b1ddf0;strokeColor=#10739e;" parent="WIyWlLk6GJQsqaUBKTNV-1" source="WIyWlLk6GJQsqaUBKTNV-10" target="WIyWlLk6GJQsqaUBKTNV-11" edge="1">
          <mxGeometry x="0.3333" y="20" relative="1" as="geometry">
            <mxPoint as="offset" />
          </mxGeometry>
        </mxCell>
        <mxCell id="WIyWlLk6GJQsqaUBKTNV-10" value="Propuesta" style="rhombus;whiteSpace=wrap;html=1;shadow=0;fontFamily=Helvetica;fontSize=12;align=center;strokeWidth=1;spacing=6;spacingTop=-4;fillColor=#60a917;fontColor=#ffffff;strokeColor=#2D7600;" parent="WIyWlLk6GJQsqaUBKTNV-1" vertex="1">
          <mxGeometry x="880" y="180" width="100" height="80" as="geometry" />
        </mxCell>
        <mxCell id="WIyWlLk6GJQsqaUBKTNV-11" value="Venta" style="rounded=1;whiteSpace=wrap;html=1;fontSize=12;glass=0;strokeWidth=1;shadow=0;fillColor=#0050ef;fontColor=#ffffff;strokeColor=#001DBC;" parent="WIyWlLk6GJQsqaUBKTNV-1" vertex="1">
          <mxGeometry x="1121" y="200" width="120" height="40" as="geometry" />
        </mxCell>
        <mxCell id="MHmjIFbe15PuZ7v1ZE7H-1" value="Facturacion venta" style="rounded=1;whiteSpace=wrap;html=1;fontSize=12;glass=0;strokeWidth=1;shadow=0;fillColor=#0050ef;fontColor=#ffffff;strokeColor=#001DBC;" parent="WIyWlLk6GJQsqaUBKTNV-1" vertex="1">
          <mxGeometry x="1540" y="710" width="120" height="40" as="geometry" />
        </mxCell>
        <mxCell id="MHmjIFbe15PuZ7v1ZE7H-2" value="Transporte Maritimo" style="rounded=1;whiteSpace=wrap;html=1;fontSize=12;glass=0;strokeWidth=1;shadow=0;fillColor=#0050ef;fontColor=#ffffff;strokeColor=#001DBC;" parent="WIyWlLk6GJQsqaUBKTNV-1" vertex="1">
          <mxGeometry x="1030" y="1020" width="120" height="40" as="geometry" />
        </mxCell>
        <mxCell id="MHmjIFbe15PuZ7v1ZE7H-3" value="Poveedores Fabricantes" style="rounded=1;whiteSpace=wrap;html=1;fontSize=12;glass=0;strokeWidth=1;shadow=0;fillColor=#0050ef;fontColor=#ffffff;strokeColor=#001DBC;" parent="WIyWlLk6GJQsqaUBKTNV-1" vertex="1">
          <mxGeometry x="30" y="930" width="120" height="40" as="geometry" />
        </mxCell>
        <mxCell id="MHmjIFbe15PuZ7v1ZE7H-4" value="Transporte&amp;nbsp; terrestre" style="rounded=1;whiteSpace=wrap;html=1;fontSize=12;glass=0;strokeWidth=1;shadow=0;fillColor=#0050ef;fontColor=#ffffff;strokeColor=#001DBC;" parent="WIyWlLk6GJQsqaUBKTNV-1" vertex="1">
          <mxGeometry x="1340" y="850" width="120" height="40" as="geometry" />
        </mxCell>
        <mxCell id="MHmjIFbe15PuZ7v1ZE7H-5" value="Almacen" style="rounded=1;whiteSpace=wrap;html=1;fontSize=12;glass=0;strokeWidth=1;shadow=0;fillColor=#0050ef;fontColor=#ffffff;strokeColor=#001DBC;" parent="WIyWlLk6GJQsqaUBKTNV-1" vertex="1">
          <mxGeometry x="30" y="710" width="120" height="40" as="geometry" />
        </mxCell>
        <mxCell id="MHmjIFbe15PuZ7v1ZE7H-6" value="Empleados preparacion de pedidos" style="rounded=1;whiteSpace=wrap;html=1;fontSize=12;glass=0;strokeWidth=1;shadow=0;fillColor=#0050ef;fontColor=#ffffff;strokeColor=#001DBC;" parent="WIyWlLk6GJQsqaUBKTNV-1" vertex="1">
          <mxGeometry x="1120" y="400" width="120" height="50" as="geometry" />
        </mxCell>
        <mxCell id="MHmjIFbe15PuZ7v1ZE7H-7" value="Existencia" style="rhombus;whiteSpace=wrap;html=1;shadow=0;fontFamily=Helvetica;fontSize=12;align=center;strokeWidth=1;spacing=6;spacingTop=-4;fillColor=#60a917;fontColor=#ffffff;strokeColor=#2D7600;" parent="WIyWlLk6GJQsqaUBKTNV-1" vertex="1">
          <mxGeometry x="650" y="390" width="100" height="80" as="geometry" />
        </mxCell>
        <mxCell id="MHmjIFbe15PuZ7v1ZE7H-8" value="Transporte Areo" style="rounded=1;whiteSpace=wrap;html=1;fontSize=12;glass=0;strokeWidth=1;shadow=0;fillColor=#0050ef;fontColor=#ffffff;strokeColor=#001DBC;" parent="WIyWlLk6GJQsqaUBKTNV-1" vertex="1">
          <mxGeometry x="330" y="1010" width="120" height="40" as="geometry" />
        </mxCell>
        <mxCell id="MHmjIFbe15PuZ7v1ZE7H-9" value="Preparacion pedido" style="rhombus;whiteSpace=wrap;html=1;shadow=0;fontFamily=Helvetica;fontSize=12;align=center;strokeWidth=1;spacing=6;spacingTop=-4;fillColor=#60a917;fontColor=#ffffff;strokeColor=#2D7600;" parent="WIyWlLk6GJQsqaUBKTNV-1" vertex="1">
          <mxGeometry x="880" y="520" width="100" height="80" as="geometry" />
        </mxCell>
        <mxCell id="MHmjIFbe15PuZ7v1ZE7H-10" value="Empleados almacen" style="rounded=1;whiteSpace=wrap;html=1;fontSize=12;glass=0;strokeWidth=1;shadow=0;fillColor=#0050ef;fontColor=#ffffff;strokeColor=#001DBC;" parent="WIyWlLk6GJQsqaUBKTNV-1" vertex="1">
          <mxGeometry x="160" y="400" width="120" height="40" as="geometry" />
        </mxCell>
        <mxCell id="MHmjIFbe15PuZ7v1ZE7H-12" value="Listo para facturar" style="rhombus;whiteSpace=wrap;html=1;shadow=0;fontFamily=Helvetica;fontSize=12;align=center;strokeWidth=1;spacing=6;spacingTop=-4;fillColor=#60a917;fontColor=#ffffff;strokeColor=#2D7600;" parent="WIyWlLk6GJQsqaUBKTNV-1" vertex="1">
          <mxGeometry x="1400" y="460" width="100" height="80" as="geometry" />
        </mxCell>
        <mxCell id="MHmjIFbe15PuZ7v1ZE7H-14" value="" style="edgeStyle=orthogonalEdgeStyle;rounded=0;html=1;jettySize=auto;orthogonalLoop=1;fontSize=11;endArrow=block;endFill=1;endSize=8;strokeWidth=4;shadow=0;labelBackgroundColor=none;entryX=1;entryY=0.5;entryDx=0;entryDy=0;exitX=0;exitY=0.5;exitDx=0;exitDy=0;fillColor=#b1ddf0;strokeColor=#10739e;" parent="WIyWlLk6GJQsqaUBKTNV-1" source="MHmjIFbe15PuZ7v1ZE7H-7" target="MHmjIFbe15PuZ7v1ZE7H-10" edge="1">
          <mxGeometry y="10" relative="1" as="geometry">
            <mxPoint as="offset" />
            <mxPoint x="430" y="388.82" as="sourcePoint" />
            <mxPoint x="560" y="388.82" as="targetPoint" />
          </mxGeometry>
        </mxCell>
        <mxCell id="MHmjIFbe15PuZ7v1ZE7H-15" value="" style="edgeStyle=orthogonalEdgeStyle;rounded=0;html=1;jettySize=auto;orthogonalLoop=1;fontSize=11;endArrow=block;endFill=1;endSize=8;strokeWidth=4;shadow=0;labelBackgroundColor=none;exitX=0.5;exitY=1;exitDx=0;exitDy=0;entryX=0.5;entryY=0;entryDx=0;entryDy=0;fillColor=#b1ddf0;strokeColor=#10739e;" parent="WIyWlLk6GJQsqaUBKTNV-1" source="MHmjIFbe15PuZ7v1ZE7H-17" target="MHmjIFbe15PuZ7v1ZE7H-5" edge="1">
          <mxGeometry y="10" relative="1" as="geometry">
            <mxPoint as="offset" />
            <mxPoint x="90" y="590" as="sourcePoint" />
            <mxPoint x="220" y="590" as="targetPoint" />
          </mxGeometry>
        </mxCell>
        <mxCell id="MHmjIFbe15PuZ7v1ZE7H-16" value="" style="edgeStyle=orthogonalEdgeStyle;rounded=0;html=1;jettySize=auto;orthogonalLoop=1;fontSize=11;endArrow=block;endFill=1;endSize=8;strokeWidth=4;shadow=0;labelBackgroundColor=none;exitX=0;exitY=0.5;exitDx=0;exitDy=0;entryX=0.5;entryY=0;entryDx=0;entryDy=0;fillColor=#b1ddf0;strokeColor=#10739e;" parent="WIyWlLk6GJQsqaUBKTNV-1" source="MHmjIFbe15PuZ7v1ZE7H-10" target="MHmjIFbe15PuZ7v1ZE7H-17" edge="1">
          <mxGeometry y="10" relative="1" as="geometry">
            <mxPoint as="offset" />
            <mxPoint x="170" y="500" as="sourcePoint" />
            <mxPoint x="300" y="500" as="targetPoint" />
          </mxGeometry>
        </mxCell>
        <mxCell id="MHmjIFbe15PuZ7v1ZE7H-17" value="Check" style="rhombus;whiteSpace=wrap;html=1;shadow=0;fontFamily=Helvetica;fontSize=12;align=center;strokeWidth=1;spacing=6;spacingTop=-4;fillColor=#60a917;fontColor=#ffffff;strokeColor=#2D7600;" parent="WIyWlLk6GJQsqaUBKTNV-1" vertex="1">
          <mxGeometry x="40" y="480" width="100" height="80" as="geometry" />
        </mxCell>
        <mxCell id="MHmjIFbe15PuZ7v1ZE7H-18" value="" style="edgeStyle=orthogonalEdgeStyle;rounded=0;html=1;jettySize=auto;orthogonalLoop=1;fontSize=11;endArrow=block;endFill=1;endSize=8;strokeWidth=4;shadow=0;labelBackgroundColor=none;entryX=0.5;entryY=1;entryDx=0;entryDy=0;exitX=1;exitY=0.5;exitDx=0;exitDy=0;fillColor=#b1ddf0;strokeColor=#10739e;" parent="WIyWlLk6GJQsqaUBKTNV-1" source="MHmjIFbe15PuZ7v1ZE7H-9" target="MHmjIFbe15PuZ7v1ZE7H-6" edge="1">
          <mxGeometry y="10" relative="1" as="geometry">
            <mxPoint as="offset" />
            <mxPoint x="1010" y="560" as="sourcePoint" />
            <mxPoint x="1140" y="560" as="targetPoint" />
            <Array as="points">
              <mxPoint x="1180" y="560" />
            </Array>
          </mxGeometry>
        </mxCell>
        <mxCell id="MHmjIFbe15PuZ7v1ZE7H-19" style="edgeStyle=orthogonalEdgeStyle;rounded=0;orthogonalLoop=1;jettySize=auto;html=1;exitX=0.5;exitY=1;exitDx=0;exitDy=0;" parent="WIyWlLk6GJQsqaUBKTNV-1" source="MHmjIFbe15PuZ7v1ZE7H-5" target="MHmjIFbe15PuZ7v1ZE7H-5" edge="1">
          <mxGeometry relative="1" as="geometry" />
        </mxCell>
        <mxCell id="MHmjIFbe15PuZ7v1ZE7H-20" value="" style="edgeStyle=orthogonalEdgeStyle;rounded=0;html=1;jettySize=auto;orthogonalLoop=1;fontSize=11;endArrow=block;endFill=1;endSize=8;strokeWidth=4;shadow=0;labelBackgroundColor=none;exitX=0.75;exitY=0;exitDx=0;exitDy=0;entryX=0;entryY=0.5;entryDx=0;entryDy=0;fillColor=#b1ddf0;strokeColor=#10739e;" parent="WIyWlLk6GJQsqaUBKTNV-1" source="MHmjIFbe15PuZ7v1ZE7H-5" target="MHmjIFbe15PuZ7v1ZE7H-76" edge="1">
          <mxGeometry y="10" relative="1" as="geometry">
            <mxPoint as="offset" />
            <mxPoint x="250" y="729.4100000000001" as="sourcePoint" />
            <mxPoint x="380" y="729.4100000000001" as="targetPoint" />
            <Array as="points">
              <mxPoint x="120" y="630" />
            </Array>
          </mxGeometry>
        </mxCell>
        <mxCell id="MHmjIFbe15PuZ7v1ZE7H-21" value="" style="edgeStyle=orthogonalEdgeStyle;rounded=0;html=1;jettySize=auto;orthogonalLoop=1;fontSize=11;endArrow=block;endFill=1;endSize=8;strokeWidth=4;shadow=0;labelBackgroundColor=none;exitX=1;exitY=0.25;exitDx=0;exitDy=0;entryX=0.5;entryY=0;entryDx=0;entryDy=0;fillColor=#b1ddf0;strokeColor=#10739e;" parent="WIyWlLk6GJQsqaUBKTNV-1" source="MHmjIFbe15PuZ7v1ZE7H-6" target="MHmjIFbe15PuZ7v1ZE7H-12" edge="1">
          <mxGeometry y="10" relative="1" as="geometry">
            <mxPoint as="offset" />
            <mxPoint x="1285" y="429.40999999999997" as="sourcePoint" />
            <mxPoint x="1415" y="429.40999999999997" as="targetPoint" />
            <Array as="points">
              <mxPoint x="1240" y="429" />
              <mxPoint x="1450" y="429" />
            </Array>
          </mxGeometry>
        </mxCell>
        <mxCell id="MHmjIFbe15PuZ7v1ZE7H-22" value="Factura y remito" style="rhombus;whiteSpace=wrap;html=1;shadow=0;fontFamily=Helvetica;fontSize=12;align=center;strokeWidth=1;spacing=6;spacingTop=-4;fillColor=#60a917;fontColor=#ffffff;strokeColor=#2D7600;" parent="WIyWlLk6GJQsqaUBKTNV-1" vertex="1">
          <mxGeometry x="1300" y="690" width="100" height="80" as="geometry" />
        </mxCell>
        <mxCell id="MHmjIFbe15PuZ7v1ZE7H-23" value="" style="edgeStyle=orthogonalEdgeStyle;rounded=0;html=1;jettySize=auto;orthogonalLoop=1;fontSize=11;endArrow=block;endFill=1;endSize=8;strokeWidth=4;shadow=0;labelBackgroundColor=none;entryX=1;entryY=0.5;entryDx=0;entryDy=0;exitX=0;exitY=0.5;exitDx=0;exitDy=0;fillColor=#b1ddf0;strokeColor=#10739e;" parent="WIyWlLk6GJQsqaUBKTNV-1" source="MHmjIFbe15PuZ7v1ZE7H-1" target="MHmjIFbe15PuZ7v1ZE7H-22" edge="1">
          <mxGeometry y="10" relative="1" as="geometry">
            <mxPoint as="offset" />
            <mxPoint x="1400" y="800" as="sourcePoint" />
            <mxPoint x="1530" y="800" as="targetPoint" />
            <Array as="points" />
          </mxGeometry>
        </mxCell>
        <mxCell id="MHmjIFbe15PuZ7v1ZE7H-24" value="" style="edgeStyle=orthogonalEdgeStyle;rounded=0;html=1;jettySize=auto;orthogonalLoop=1;fontSize=11;endArrow=block;endFill=1;endSize=8;strokeWidth=4;shadow=0;labelBackgroundColor=none;exitX=0.5;exitY=1;exitDx=0;exitDy=0;entryX=0.442;entryY=0.072;entryDx=0;entryDy=0;entryPerimeter=0;fillColor=#b1ddf0;strokeColor=#10739e;" parent="WIyWlLk6GJQsqaUBKTNV-1" source="MHmjIFbe15PuZ7v1ZE7H-12" target="MHmjIFbe15PuZ7v1ZE7H-1" edge="1">
          <mxGeometry y="10" relative="1" as="geometry">
            <mxPoint as="offset" />
            <mxPoint x="1470" y="570" as="sourcePoint" />
            <mxPoint x="1600" y="570" as="targetPoint" />
            <Array as="points">
              <mxPoint x="1450" y="570" />
              <mxPoint x="1593" y="570" />
            </Array>
          </mxGeometry>
        </mxCell>
        <mxCell id="MHmjIFbe15PuZ7v1ZE7H-30" value="Envio con demora 30 dias" style="rhombus;whiteSpace=wrap;html=1;shadow=0;fontFamily=Helvetica;fontSize=12;align=center;strokeWidth=1;spacing=6;spacingTop=-4;fillColor=#60a917;fontColor=#ffffff;strokeColor=#2D7600;" parent="WIyWlLk6GJQsqaUBKTNV-1" vertex="1">
          <mxGeometry x="827" y="1060" width="100" height="80" as="geometry" />
        </mxCell>
        <mxCell id="MHmjIFbe15PuZ7v1ZE7H-31" value="Envio con demora 5 dias" style="rhombus;whiteSpace=wrap;html=1;shadow=0;fontFamily=Helvetica;fontSize=12;align=center;strokeWidth=1;spacing=6;spacingTop=-4;fillColor=#60a917;fontColor=#ffffff;strokeColor=#2D7600;" parent="WIyWlLk6GJQsqaUBKTNV-1" vertex="1">
          <mxGeometry x="560" y="1060" width="100" height="80" as="geometry" />
        </mxCell>
        <mxCell id="MHmjIFbe15PuZ7v1ZE7H-34" value="" style="edgeStyle=orthogonalEdgeStyle;rounded=0;html=1;jettySize=auto;orthogonalLoop=1;fontSize=11;endArrow=block;endFill=1;endSize=8;strokeWidth=4;shadow=0;labelBackgroundColor=none;exitX=1;exitY=0.5;exitDx=0;exitDy=0;entryX=0.5;entryY=0;entryDx=0;entryDy=0;fillColor=#b1ddf0;strokeColor=#10739e;" parent="WIyWlLk6GJQsqaUBKTNV-1" source="MHmjIFbe15PuZ7v1ZE7H-8" target="MHmjIFbe15PuZ7v1ZE7H-31" edge="1">
          <mxGeometry y="10" relative="1" as="geometry">
            <mxPoint as="offset" />
            <mxPoint x="640" y="1010" as="sourcePoint" />
            <mxPoint x="480" y="980" as="targetPoint" />
            <Array as="points">
              <mxPoint x="610" y="1030" />
            </Array>
          </mxGeometry>
        </mxCell>
        <mxCell id="MHmjIFbe15PuZ7v1ZE7H-35" value="" style="edgeStyle=orthogonalEdgeStyle;rounded=0;html=1;jettySize=auto;orthogonalLoop=1;fontSize=11;endArrow=block;endFill=1;endSize=8;strokeWidth=4;shadow=0;labelBackgroundColor=none;exitX=0;exitY=0.5;exitDx=0;exitDy=0;entryX=0.5;entryY=0;entryDx=0;entryDy=0;fillColor=#b1ddf0;strokeColor=#10739e;" parent="WIyWlLk6GJQsqaUBKTNV-1" source="MHmjIFbe15PuZ7v1ZE7H-2" target="MHmjIFbe15PuZ7v1ZE7H-30" edge="1">
          <mxGeometry y="10" relative="1" as="geometry">
            <mxPoint as="offset" />
            <mxPoint x="710" y="1000" as="sourcePoint" />
            <mxPoint x="870" y="1030" as="targetPoint" />
            <Array as="points">
              <mxPoint x="877" y="1040" />
            </Array>
          </mxGeometry>
        </mxCell>
        <mxCell id="MHmjIFbe15PuZ7v1ZE7H-52" value="id_trans_aereo" style="ellipse;whiteSpace=wrap;html=1;fillColor=#f0a30a;fontColor=#000000;strokeColor=#BD7000;" parent="WIyWlLk6GJQsqaUBKTNV-1" vertex="1">
          <mxGeometry x="340" y="1110" width="100" height="40" as="geometry" />
        </mxCell>
        <mxCell id="MHmjIFbe15PuZ7v1ZE7H-53" value="id_facturacion" style="ellipse;whiteSpace=wrap;html=1;fillColor=#f0a30a;fontColor=#000000;strokeColor=#BD7000;" parent="WIyWlLk6GJQsqaUBKTNV-1" vertex="1">
          <mxGeometry x="1550" y="800" width="100" height="40" as="geometry" />
        </mxCell>
        <mxCell id="MHmjIFbe15PuZ7v1ZE7H-54" value="id_emp_prepa" style="ellipse;whiteSpace=wrap;html=1;fillColor=#f0a30a;fontColor=#000000;strokeColor=#BD7000;" parent="WIyWlLk6GJQsqaUBKTNV-1" vertex="1">
          <mxGeometry x="1260" y="330" width="100" height="40" as="geometry" />
        </mxCell>
        <mxCell id="MHmjIFbe15PuZ7v1ZE7H-55" value="id_trans_terrestre" style="ellipse;whiteSpace=wrap;html=1;fillColor=#f0a30a;fontColor=#000000;strokeColor=#BD7000;" parent="WIyWlLk6GJQsqaUBKTNV-1" vertex="1">
          <mxGeometry x="1350" y="915" width="100" height="40" as="geometry" />
        </mxCell>
        <mxCell id="MHmjIFbe15PuZ7v1ZE7H-56" value="id_trans_mar" style="ellipse;whiteSpace=wrap;html=1;fillColor=#f0a30a;fontColor=#000000;strokeColor=#BD7000;" parent="WIyWlLk6GJQsqaUBKTNV-1" vertex="1">
          <mxGeometry x="1040" y="1110" width="100" height="40" as="geometry" />
        </mxCell>
        <mxCell id="MHmjIFbe15PuZ7v1ZE7H-57" value="id_venta" style="ellipse;whiteSpace=wrap;html=1;fillColor=#f0a30a;fontColor=#000000;strokeColor=#BD7000;" parent="WIyWlLk6GJQsqaUBKTNV-1" vertex="1">
          <mxGeometry x="1130" y="110" width="100" height="40" as="geometry" />
        </mxCell>
        <mxCell id="MHmjIFbe15PuZ7v1ZE7H-58" value="id_vendedor" style="ellipse;whiteSpace=wrap;html=1;fillColor=#f0a30a;fontColor=#000000;strokeColor=#BD7000;" parent="WIyWlLk6GJQsqaUBKTNV-1" vertex="1">
          <mxGeometry x="650" y="110" width="100" height="40" as="geometry" />
        </mxCell>
        <mxCell id="MHmjIFbe15PuZ7v1ZE7H-59" value="id_emp_almacen" style="ellipse;whiteSpace=wrap;html=1;fillColor=#f0a30a;fontColor=#000000;strokeColor=#BD7000;" parent="WIyWlLk6GJQsqaUBKTNV-1" vertex="1">
          <mxGeometry x="170" y="310" width="100" height="40" as="geometry" />
        </mxCell>
        <mxCell id="MHmjIFbe15PuZ7v1ZE7H-60" value="id_almacen" style="ellipse;whiteSpace=wrap;html=1;fillColor=#f0a30a;fontColor=#000000;strokeColor=#BD7000;" parent="WIyWlLk6GJQsqaUBKTNV-1" vertex="1">
          <mxGeometry x="230" y="780" width="100" height="40" as="geometry" />
        </mxCell>
        <mxCell id="MHmjIFbe15PuZ7v1ZE7H-61" value="id_proveedor_f" style="ellipse;whiteSpace=wrap;html=1;fillColor=#f0a30a;strokeColor=#BD7000;fontColor=#000000;" parent="WIyWlLk6GJQsqaUBKTNV-1" vertex="1">
          <mxGeometry x="40" y="820" width="100" height="40" as="geometry" />
        </mxCell>
        <mxCell id="MHmjIFbe15PuZ7v1ZE7H-62" value="id_cliente" style="ellipse;whiteSpace=wrap;html=1;fillColor=#f0a30a;fontColor=#000000;strokeColor=#BD7000;" parent="WIyWlLk6GJQsqaUBKTNV-1" vertex="1">
          <mxGeometry x="170" y="110" width="100" height="40" as="geometry" />
        </mxCell>
        <mxCell id="MHmjIFbe15PuZ7v1ZE7H-64" value="" style="edgeStyle=orthogonalEdgeStyle;rounded=0;html=1;jettySize=auto;orthogonalLoop=1;fontSize=11;endArrow=block;endFill=0;endSize=8;strokeWidth=1;shadow=0;labelBackgroundColor=none;exitX=0.5;exitY=0;exitDx=0;exitDy=0;entryX=0.5;entryY=1;entryDx=0;entryDy=0;fillColor=#b1ddf0;strokeColor=#10739e;" parent="WIyWlLk6GJQsqaUBKTNV-1" source="MHmjIFbe15PuZ7v1ZE7H-3" target="MHmjIFbe15PuZ7v1ZE7H-61" edge="1">
          <mxGeometry y="10" relative="1" as="geometry">
            <mxPoint as="offset" />
            <mxPoint x="230" y="990" as="sourcePoint" />
            <mxPoint x="230" y="1140" as="targetPoint" />
          </mxGeometry>
        </mxCell>
        <mxCell id="MHmjIFbe15PuZ7v1ZE7H-65" value="" style="edgeStyle=orthogonalEdgeStyle;rounded=0;html=1;jettySize=auto;orthogonalLoop=1;fontSize=11;endArrow=block;endFill=0;endSize=8;strokeWidth=1;shadow=0;labelBackgroundColor=none;exitX=0.75;exitY=1;exitDx=0;exitDy=0;entryX=0;entryY=0.5;entryDx=0;entryDy=0;fillColor=#b1ddf0;strokeColor=#10739e;" parent="WIyWlLk6GJQsqaUBKTNV-1" source="MHmjIFbe15PuZ7v1ZE7H-5" target="MHmjIFbe15PuZ7v1ZE7H-60" edge="1">
          <mxGeometry y="10" relative="1" as="geometry">
            <mxPoint as="offset" />
            <mxPoint x="180" y="790" as="sourcePoint" />
            <mxPoint x="180" y="940" as="targetPoint" />
          </mxGeometry>
        </mxCell>
        <mxCell id="MHmjIFbe15PuZ7v1ZE7H-66" value="" style="edgeStyle=orthogonalEdgeStyle;rounded=0;html=1;jettySize=auto;orthogonalLoop=1;fontSize=11;endArrow=block;endFill=0;endSize=8;strokeWidth=1;shadow=0;labelBackgroundColor=none;exitX=0.5;exitY=1;exitDx=0;exitDy=0;entryX=0.5;entryY=0;entryDx=0;entryDy=0;fillColor=#b1ddf0;strokeColor=#10739e;" parent="WIyWlLk6GJQsqaUBKTNV-1" source="MHmjIFbe15PuZ7v1ZE7H-4" target="MHmjIFbe15PuZ7v1ZE7H-55" edge="1">
          <mxGeometry y="10" relative="1" as="geometry">
            <mxPoint as="offset" />
            <mxPoint x="770" y="700" as="sourcePoint" />
            <mxPoint x="770" y="850" as="targetPoint" />
          </mxGeometry>
        </mxCell>
        <mxCell id="MHmjIFbe15PuZ7v1ZE7H-67" value="" style="edgeStyle=orthogonalEdgeStyle;rounded=0;html=1;jettySize=auto;orthogonalLoop=1;fontSize=11;endArrow=block;endFill=0;endSize=8;strokeWidth=1;shadow=0;labelBackgroundColor=none;exitX=0.5;exitY=0;exitDx=0;exitDy=0;entryX=0.5;entryY=1;entryDx=0;entryDy=0;fillColor=#b1ddf0;strokeColor=#10739e;" parent="WIyWlLk6GJQsqaUBKTNV-1" source="WIyWlLk6GJQsqaUBKTNV-3" target="MHmjIFbe15PuZ7v1ZE7H-62" edge="1">
          <mxGeometry y="10" relative="1" as="geometry">
            <mxPoint as="offset" />
            <mxPoint x="370" y="265" as="sourcePoint" />
            <mxPoint x="370" y="415" as="targetPoint" />
          </mxGeometry>
        </mxCell>
        <mxCell id="MHmjIFbe15PuZ7v1ZE7H-68" value="" style="edgeStyle=orthogonalEdgeStyle;rounded=0;html=1;jettySize=auto;orthogonalLoop=1;fontSize=11;endArrow=block;endFill=0;endSize=8;strokeWidth=1;shadow=0;labelBackgroundColor=none;entryX=0.5;entryY=0;entryDx=0;entryDy=0;fillColor=#b1ddf0;strokeColor=#10739e;" parent="WIyWlLk6GJQsqaUBKTNV-1" edge="1">
          <mxGeometry y="10" relative="1" as="geometry">
            <mxPoint as="offset" />
            <mxPoint x="390" y="1050" as="sourcePoint" />
            <mxPoint x="389.5" y="1110" as="targetPoint" />
            <Array as="points">
              <mxPoint x="389.5" y="1090" />
              <mxPoint x="389.5" y="1090" />
            </Array>
          </mxGeometry>
        </mxCell>
        <mxCell id="MHmjIFbe15PuZ7v1ZE7H-69" value="" style="edgeStyle=orthogonalEdgeStyle;rounded=0;html=1;jettySize=auto;orthogonalLoop=1;fontSize=11;endArrow=block;endFill=0;endSize=8;strokeWidth=1;shadow=0;labelBackgroundColor=none;exitX=0.5;exitY=1;exitDx=0;exitDy=0;fillColor=#b1ddf0;strokeColor=#10739e;" parent="WIyWlLk6GJQsqaUBKTNV-1" source="MHmjIFbe15PuZ7v1ZE7H-2" target="MHmjIFbe15PuZ7v1ZE7H-56" edge="1">
          <mxGeometry y="10" relative="1" as="geometry">
            <mxPoint as="offset" />
            <mxPoint x="1089.5" y="1070" as="sourcePoint" />
            <mxPoint x="1090" y="1100" as="targetPoint" />
            <Array as="points" />
          </mxGeometry>
        </mxCell>
        <mxCell id="MHmjIFbe15PuZ7v1ZE7H-70" value="" style="edgeStyle=orthogonalEdgeStyle;rounded=0;html=1;jettySize=auto;orthogonalLoop=1;fontSize=11;endArrow=block;endFill=0;endSize=8;strokeWidth=1;shadow=0;labelBackgroundColor=none;exitX=0.5;exitY=0;exitDx=0;exitDy=0;entryX=0.5;entryY=1;entryDx=0;entryDy=0;fillColor=#b1ddf0;strokeColor=#10739e;" parent="WIyWlLk6GJQsqaUBKTNV-1" edge="1">
          <mxGeometry y="10" relative="1" as="geometry">
            <mxPoint as="offset" />
            <mxPoint x="219.5" y="400" as="sourcePoint" />
            <mxPoint x="219.5" y="350" as="targetPoint" />
          </mxGeometry>
        </mxCell>
        <mxCell id="MHmjIFbe15PuZ7v1ZE7H-71" value="" style="edgeStyle=orthogonalEdgeStyle;rounded=0;html=1;jettySize=auto;orthogonalLoop=1;fontSize=11;endArrow=block;endFill=0;endSize=8;strokeWidth=1;shadow=0;labelBackgroundColor=none;exitX=0.5;exitY=0;exitDx=0;exitDy=0;entryX=0.5;entryY=1;entryDx=0;entryDy=0;fillColor=#b1ddf0;strokeColor=#10739e;" parent="WIyWlLk6GJQsqaUBKTNV-1" edge="1">
          <mxGeometry y="10" relative="1" as="geometry">
            <mxPoint as="offset" />
            <mxPoint x="699.5" y="200" as="sourcePoint" />
            <mxPoint x="699.5" y="150" as="targetPoint" />
          </mxGeometry>
        </mxCell>
        <mxCell id="MHmjIFbe15PuZ7v1ZE7H-72" value="" style="edgeStyle=orthogonalEdgeStyle;rounded=0;html=1;jettySize=auto;orthogonalLoop=1;fontSize=11;endArrow=block;endFill=0;endSize=8;strokeWidth=1;shadow=0;labelBackgroundColor=none;exitX=0.5;exitY=0;exitDx=0;exitDy=0;entryX=0;entryY=0.5;entryDx=0;entryDy=0;fillColor=#b1ddf0;strokeColor=#10739e;" parent="WIyWlLk6GJQsqaUBKTNV-1" source="MHmjIFbe15PuZ7v1ZE7H-6" target="MHmjIFbe15PuZ7v1ZE7H-54" edge="1">
          <mxGeometry y="10" relative="1" as="geometry">
            <mxPoint as="offset" />
            <mxPoint x="1310" y="245" as="sourcePoint" />
            <mxPoint x="1310" y="195" as="targetPoint" />
            <Array as="points">
              <mxPoint x="1180" y="350" />
            </Array>
          </mxGeometry>
        </mxCell>
        <mxCell id="MHmjIFbe15PuZ7v1ZE7H-73" value="" style="edgeStyle=orthogonalEdgeStyle;rounded=0;html=1;jettySize=auto;orthogonalLoop=1;fontSize=11;endArrow=block;endFill=0;endSize=8;strokeWidth=1;shadow=0;labelBackgroundColor=none;fillColor=#b1ddf0;strokeColor=#10739e;" parent="WIyWlLk6GJQsqaUBKTNV-1" edge="1">
          <mxGeometry y="10" relative="1" as="geometry">
            <mxPoint as="offset" />
            <mxPoint x="1181" y="200" as="sourcePoint" />
            <mxPoint x="1180.5" y="149.5" as="targetPoint" />
          </mxGeometry>
        </mxCell>
        <mxCell id="MHmjIFbe15PuZ7v1ZE7H-74" value="" style="edgeStyle=orthogonalEdgeStyle;rounded=0;html=1;jettySize=auto;orthogonalLoop=1;fontSize=11;endArrow=block;endFill=0;endSize=8;strokeWidth=1;shadow=0;labelBackgroundColor=none;exitX=0.5;exitY=1;exitDx=0;exitDy=0;entryX=0.5;entryY=0;entryDx=0;entryDy=0;fillColor=#b1ddf0;strokeColor=#10739e;" parent="WIyWlLk6GJQsqaUBKTNV-1" source="MHmjIFbe15PuZ7v1ZE7H-1" target="MHmjIFbe15PuZ7v1ZE7H-53" edge="1">
          <mxGeometry y="10" relative="1" as="geometry">
            <mxPoint as="offset" />
            <mxPoint x="1670" y="760" as="sourcePoint" />
            <mxPoint x="1749" y="860" as="targetPoint" />
          </mxGeometry>
        </mxCell>
        <mxCell id="MHmjIFbe15PuZ7v1ZE7H-75" value="Productos" style="rounded=1;whiteSpace=wrap;html=1;fontSize=12;glass=0;strokeWidth=1;shadow=0;fillColor=#0050ef;fontColor=#ffffff;strokeColor=#001DBC;" parent="WIyWlLk6GJQsqaUBKTNV-1" vertex="1">
          <mxGeometry x="570" y="610" width="120" height="40" as="geometry" />
        </mxCell>
        <mxCell id="MHmjIFbe15PuZ7v1ZE7H-76" value="Confirmacion para venta" style="rhombus;whiteSpace=wrap;html=1;shadow=0;fontFamily=Helvetica;fontSize=12;align=center;strokeWidth=1;spacing=6;spacingTop=-4;fillColor=#60a917;fontColor=#ffffff;strokeColor=#2D7600;" parent="WIyWlLk6GJQsqaUBKTNV-1" vertex="1">
          <mxGeometry x="290" y="590" width="100" height="80" as="geometry" />
        </mxCell>
        <mxCell id="MHmjIFbe15PuZ7v1ZE7H-77" value="" style="edgeStyle=orthogonalEdgeStyle;rounded=0;html=1;jettySize=auto;orthogonalLoop=1;fontSize=11;endArrow=block;endFill=1;endSize=8;strokeWidth=4;shadow=0;labelBackgroundColor=none;exitX=1;exitY=0.5;exitDx=0;exitDy=0;entryX=0;entryY=0.5;entryDx=0;entryDy=0;fillColor=#b1ddf0;strokeColor=#10739e;" parent="WIyWlLk6GJQsqaUBKTNV-1" source="MHmjIFbe15PuZ7v1ZE7H-75" target="MHmjIFbe15PuZ7v1ZE7H-9" edge="1">
          <mxGeometry y="10" relative="1" as="geometry">
            <mxPoint as="offset" />
            <mxPoint x="690" y="620" as="sourcePoint" />
            <mxPoint x="830" y="520" as="targetPoint" />
            <Array as="points">
              <mxPoint x="790" y="630" />
              <mxPoint x="790" y="560" />
            </Array>
          </mxGeometry>
        </mxCell>
        <mxCell id="MHmjIFbe15PuZ7v1ZE7H-79" value="" style="edgeStyle=orthogonalEdgeStyle;rounded=0;html=1;jettySize=auto;orthogonalLoop=1;fontSize=11;endArrow=block;endFill=1;endSize=8;strokeWidth=4;shadow=0;labelBackgroundColor=none;fillColor=#b1ddf0;strokeColor=#10739e;entryX=0;entryY=0.5;entryDx=0;entryDy=0;" parent="WIyWlLk6GJQsqaUBKTNV-1" target="MHmjIFbe15PuZ7v1ZE7H-75" edge="1">
          <mxGeometry y="10" relative="1" as="geometry">
            <mxPoint as="offset" />
            <mxPoint x="390" y="629.47" as="sourcePoint" />
            <mxPoint x="520" y="629.47" as="targetPoint" />
            <Array as="points" />
          </mxGeometry>
        </mxCell>
        <mxCell id="dYBJ2h_Ycq64x_hKK8hy-0" value="Compras_a_proveedor" style="rounded=1;whiteSpace=wrap;html=1;fontSize=12;glass=0;strokeWidth=1;shadow=0;fillColor=#0050ef;fontColor=#ffffff;strokeColor=#001DBC;" parent="WIyWlLk6GJQsqaUBKTNV-1" vertex="1">
          <mxGeometry x="440" y="730" width="130" height="40" as="geometry" />
        </mxCell>
        <mxCell id="dYBJ2h_Ycq64x_hKK8hy-1" value="" style="edgeStyle=orthogonalEdgeStyle;rounded=0;html=1;jettySize=auto;orthogonalLoop=1;fontSize=11;endArrow=block;endFill=1;endSize=8;strokeWidth=4;shadow=0;labelBackgroundColor=none;exitX=0;exitY=0;exitDx=0;exitDy=0;fillColor=#b1ddf0;strokeColor=#10739e;" parent="WIyWlLk6GJQsqaUBKTNV-1" edge="1">
          <mxGeometry y="10" relative="1" as="geometry">
            <mxPoint as="offset" />
            <mxPoint x="685" y="850" as="sourcePoint" />
            <mxPoint x="510" y="770" as="targetPoint" />
            <Array as="points">
              <mxPoint x="685" y="810" />
              <mxPoint x="510" y="810" />
            </Array>
          </mxGeometry>
        </mxCell>
        <mxCell id="dYBJ2h_Ycq64x_hKK8hy-2" value="" style="edgeStyle=orthogonalEdgeStyle;rounded=0;html=1;jettySize=auto;orthogonalLoop=1;fontSize=11;endArrow=block;endFill=1;endSize=8;strokeWidth=4;shadow=0;labelBackgroundColor=none;exitX=0;exitY=0.5;exitDx=0;exitDy=0;fillColor=#b1ddf0;strokeColor=#10739e;entryX=1;entryY=0.5;entryDx=0;entryDy=0;" parent="WIyWlLk6GJQsqaUBKTNV-1" source="dYBJ2h_Ycq64x_hKK8hy-0" target="MHmjIFbe15PuZ7v1ZE7H-5" edge="1">
          <mxGeometry y="10" relative="1" as="geometry">
            <mxPoint as="offset" />
            <mxPoint x="430" y="750" as="sourcePoint" />
            <mxPoint x="160" y="730" as="targetPoint" />
            <Array as="points" />
          </mxGeometry>
        </mxCell>
        <mxCell id="dYBJ2h_Ycq64x_hKK8hy-3" value="id_compra_proveedor" style="ellipse;whiteSpace=wrap;html=1;fillColor=#f0a30a;fontColor=#000000;strokeColor=#BD7000;" parent="WIyWlLk6GJQsqaUBKTNV-1" vertex="1">
          <mxGeometry x="440" y="660" width="130" height="40" as="geometry" />
        </mxCell>
        <mxCell id="dYBJ2h_Ycq64x_hKK8hy-4" value="" style="edgeStyle=orthogonalEdgeStyle;rounded=0;html=1;jettySize=auto;orthogonalLoop=1;fontSize=11;endArrow=block;endFill=0;endSize=8;strokeWidth=1;shadow=0;labelBackgroundColor=none;exitX=1;exitY=0.5;exitDx=0;exitDy=0;fillColor=#b1ddf0;strokeColor=#10739e;" parent="WIyWlLk6GJQsqaUBKTNV-1" source="dYBJ2h_Ycq64x_hKK8hy-3" edge="1">
          <mxGeometry y="10" relative="1" as="geometry">
            <mxPoint as="offset" />
            <mxPoint x="640" y="680" as="sourcePoint" />
            <mxPoint x="570" y="750" as="targetPoint" />
            <Array as="points">
              <mxPoint x="641" y="680" />
              <mxPoint x="641" y="750" />
            </Array>
          </mxGeometry>
        </mxCell>
        <mxCell id="dYBJ2h_Ycq64x_hKK8hy-5" value="factura_proveedor" style="rounded=1;whiteSpace=wrap;html=1;fontSize=12;glass=0;strokeWidth=1;shadow=0;fillColor=#0050ef;fontColor=#ffffff;strokeColor=#001DBC;" parent="WIyWlLk6GJQsqaUBKTNV-1" vertex="1">
          <mxGeometry x="30" y="1100" width="120" height="40" as="geometry" />
        </mxCell>
        <mxCell id="dYBJ2h_Ycq64x_hKK8hy-9" value="id_facturacion_proveedor" style="ellipse;whiteSpace=wrap;html=1;fillColor=#f0a30a;fontColor=#000000;strokeColor=#BD7000;" parent="WIyWlLk6GJQsqaUBKTNV-1" vertex="1">
          <mxGeometry x="160" y="960" width="170" height="40" as="geometry" />
        </mxCell>
        <mxCell id="dYBJ2h_Ycq64x_hKK8hy-10" value="" style="edgeStyle=orthogonalEdgeStyle;rounded=0;html=1;jettySize=auto;orthogonalLoop=1;fontSize=11;endArrow=block;endFill=0;endSize=8;strokeWidth=1;shadow=0;labelBackgroundColor=none;entryX=0.5;entryY=1;entryDx=0;entryDy=0;fillColor=#b1ddf0;strokeColor=#10739e;exitX=0.914;exitY=-0.018;exitDx=0;exitDy=0;exitPerimeter=0;" parent="WIyWlLk6GJQsqaUBKTNV-1" target="dYBJ2h_Ycq64x_hKK8hy-9" edge="1" source="dYBJ2h_Ycq64x_hKK8hy-5">
          <mxGeometry y="10" relative="1" as="geometry">
            <mxPoint as="offset" />
            <mxPoint x="120" y="890" as="sourcePoint" />
            <mxPoint x="119.58" y="940" as="targetPoint" />
            <Array as="points">
              <mxPoint x="150" y="1099" />
              <mxPoint x="150" y="1060" />
              <mxPoint x="245" y="1060" />
            </Array>
          </mxGeometry>
        </mxCell>
        <mxCell id="dYBJ2h_Ycq64x_hKK8hy-11" value="Envio" style="rounded=1;whiteSpace=wrap;html=1;fontSize=12;glass=0;strokeWidth=1;shadow=0;fillColor=#0050ef;fontColor=#ffffff;strokeColor=#001DBC;" parent="WIyWlLk6GJQsqaUBKTNV-1" vertex="1">
          <mxGeometry x="680" y="850" width="120" height="40" as="geometry" />
        </mxCell>
        <mxCell id="dYBJ2h_Ycq64x_hKK8hy-12" value="envio_id" style="ellipse;whiteSpace=wrap;html=1;fillColor=#f0a30a;fontColor=#000000;strokeColor=#BD7000;" parent="WIyWlLk6GJQsqaUBKTNV-1" vertex="1">
          <mxGeometry x="760" y="760" width="100" height="40" as="geometry" />
        </mxCell>
        <mxCell id="dYBJ2h_Ycq64x_hKK8hy-13" value="" style="edgeStyle=orthogonalEdgeStyle;rounded=0;html=1;jettySize=auto;orthogonalLoop=1;fontSize=11;endArrow=block;endFill=0;endSize=8;strokeWidth=1;shadow=0;labelBackgroundColor=none;exitX=0;exitY=1;exitDx=0;exitDy=0;entryX=0.75;entryY=0;entryDx=0;entryDy=0;fillColor=#b1ddf0;strokeColor=#10739e;" parent="WIyWlLk6GJQsqaUBKTNV-1" target="dYBJ2h_Ycq64x_hKK8hy-11" edge="1" source="dYBJ2h_Ycq64x_hKK8hy-12">
          <mxGeometry y="10" relative="1" as="geometry">
            <mxPoint as="offset" />
            <mxPoint x="809.47" y="800" as="sourcePoint" />
            <mxPoint x="809.47" y="850" as="targetPoint" />
          </mxGeometry>
        </mxCell>
        <mxCell id="dYBJ2h_Ycq64x_hKK8hy-15" value="" style="endArrow=classic;startArrow=classic;html=1;rounded=0;entryX=0.5;entryY=0;entryDx=0;entryDy=0;exitX=0;exitY=0.5;exitDx=0;exitDy=0;strokeColor=#0E8088;strokeWidth=4;" parent="WIyWlLk6GJQsqaUBKTNV-1" source="XBsoK3pHsKmf2cSNkZa1-4" target="MHmjIFbe15PuZ7v1ZE7H-8" edge="1">
          <mxGeometry width="50" height="50" relative="1" as="geometry">
            <mxPoint x="750" y="900" as="sourcePoint" />
            <mxPoint x="1100" y="1030" as="targetPoint" />
            <Array as="points">
              <mxPoint x="390" y="980" />
            </Array>
          </mxGeometry>
        </mxCell>
        <mxCell id="dYBJ2h_Ycq64x_hKK8hy-16" value="" style="endArrow=classic;startArrow=classic;html=1;rounded=0;exitX=0.5;exitY=0;exitDx=0;exitDy=0;fillColor=#0050ef;strokeColor=#0E8088;strokeWidth=4;entryX=0;entryY=0.5;entryDx=0;entryDy=0;" parent="WIyWlLk6GJQsqaUBKTNV-1" source="dYBJ2h_Ycq64x_hKK8hy-11" target="XBsoK3pHsKmf2cSNkZa1-9" edge="1">
          <mxGeometry width="50" height="50" relative="1" as="geometry">
            <mxPoint x="730" y="770" as="sourcePoint" />
            <mxPoint x="1130" y="730" as="targetPoint" />
            <Array as="points">
              <mxPoint x="740" y="730" />
            </Array>
          </mxGeometry>
        </mxCell>
        <mxCell id="w-5dL875tliOIacc9Mum-3" value="" style="rounded=0;html=1;jettySize=auto;orthogonalLoop=1;fontSize=11;endArrow=block;endFill=1;endSize=8;strokeWidth=4;shadow=0;labelBackgroundColor=none;edgeStyle=orthogonalEdgeStyle;exitX=1;exitY=0.5;exitDx=0;exitDy=0;fillColor=#b1ddf0;strokeColor=#10739e;entryX=0;entryY=0.5;entryDx=0;entryDy=0;" parent="WIyWlLk6GJQsqaUBKTNV-1" target="WIyWlLk6GJQsqaUBKTNV-7" edge="1">
          <mxGeometry y="20" relative="1" as="geometry">
            <mxPoint as="offset" />
            <mxPoint x="510" y="219.41" as="sourcePoint" />
            <mxPoint x="630" y="219.41" as="targetPoint" />
            <Array as="points">
              <mxPoint x="560" y="219" />
            </Array>
          </mxGeometry>
        </mxCell>
        <mxCell id="w-5dL875tliOIacc9Mum-4" value="" style="rounded=0;html=1;jettySize=auto;orthogonalLoop=1;fontSize=11;endArrow=block;endFill=1;endSize=8;strokeWidth=4;shadow=0;labelBackgroundColor=none;edgeStyle=orthogonalEdgeStyle;exitX=1;exitY=0.5;exitDx=0;exitDy=0;fillColor=#b1ddf0;strokeColor=#10739e;entryX=0;entryY=0.5;entryDx=0;entryDy=0;" parent="WIyWlLk6GJQsqaUBKTNV-1" target="WIyWlLk6GJQsqaUBKTNV-6" edge="1">
          <mxGeometry y="20" relative="1" as="geometry">
            <mxPoint as="offset" />
            <mxPoint x="280" y="219.41" as="sourcePoint" />
            <mxPoint x="400" y="219.41" as="targetPoint" />
          </mxGeometry>
        </mxCell>
        <mxCell id="w-5dL875tliOIacc9Mum-9" value="&lt;font style=&quot;font-size: 14px;&quot;&gt;M&lt;/font&gt;" style="text;html=1;align=center;verticalAlign=middle;resizable=0;points=[];autosize=1;strokeColor=none;fillColor=none;" parent="WIyWlLk6GJQsqaUBKTNV-1" vertex="1">
          <mxGeometry x="620" y="820" width="40" height="30" as="geometry" />
        </mxCell>
        <mxCell id="w-5dL875tliOIacc9Mum-10" value="&lt;font style=&quot;font-size: 14px;&quot;&gt;M&lt;/font&gt;" style="text;html=1;align=center;verticalAlign=middle;resizable=0;points=[];autosize=1;strokeColor=none;fillColor=none;" parent="WIyWlLk6GJQsqaUBKTNV-1" vertex="1">
          <mxGeometry x="690" y="805" width="40" height="30" as="geometry" />
        </mxCell>
        <mxCell id="w-5dL875tliOIacc9Mum-11" value="&lt;font style=&quot;font-size: 14px;&quot;&gt;M&lt;/font&gt;" style="text;html=1;align=center;verticalAlign=middle;resizable=0;points=[];autosize=1;strokeColor=none;fillColor=none;" parent="WIyWlLk6GJQsqaUBKTNV-1" vertex="1">
          <mxGeometry x="820" y="820" width="40" height="30" as="geometry" />
        </mxCell>
        <mxCell id="w-5dL875tliOIacc9Mum-12" value="&lt;font style=&quot;font-size: 14px;&quot;&gt;N&lt;/font&gt;" style="text;html=1;align=center;verticalAlign=middle;resizable=0;points=[];autosize=1;strokeColor=none;fillColor=none;" parent="WIyWlLk6GJQsqaUBKTNV-1" vertex="1">
          <mxGeometry x="1120" y="260" width="30" height="30" as="geometry" />
        </mxCell>
        <mxCell id="w-5dL875tliOIacc9Mum-13" value="&lt;font style=&quot;font-size: 14px;&quot;&gt;N&lt;/font&gt;" style="text;html=1;align=center;verticalAlign=middle;resizable=0;points=[];autosize=1;strokeColor=none;fillColor=none;" parent="WIyWlLk6GJQsqaUBKTNV-1" vertex="1">
          <mxGeometry x="1075" y="170" width="30" height="30" as="geometry" />
        </mxCell>
        <mxCell id="w-5dL875tliOIacc9Mum-14" value="&lt;font style=&quot;font-size: 14px;&quot;&gt;N&lt;/font&gt;" style="text;html=1;align=center;verticalAlign=middle;resizable=0;points=[];autosize=1;strokeColor=none;fillColor=none;" parent="WIyWlLk6GJQsqaUBKTNV-1" vertex="1">
          <mxGeometry x="300" y="170" width="30" height="30" as="geometry" />
        </mxCell>
        <mxCell id="w-5dL875tliOIacc9Mum-15" value="&lt;font style=&quot;font-size: 14px;&quot;&gt;N&lt;/font&gt;" style="text;html=1;align=center;verticalAlign=middle;resizable=0;points=[];autosize=1;strokeColor=none;fillColor=none;" parent="WIyWlLk6GJQsqaUBKTNV-1" vertex="1">
          <mxGeometry x="595" y="170" width="30" height="30" as="geometry" />
        </mxCell>
        <mxCell id="w-5dL875tliOIacc9Mum-16" value="&lt;font style=&quot;font-size: 14px;&quot;&gt;1&lt;/font&gt;" style="text;html=1;align=center;verticalAlign=middle;resizable=0;points=[];autosize=1;strokeColor=none;fillColor=none;" parent="WIyWlLk6GJQsqaUBKTNV-1" vertex="1">
          <mxGeometry x="1110" y="980" width="30" height="30" as="geometry" />
        </mxCell>
        <mxCell id="w-5dL875tliOIacc9Mum-17" value="&lt;font style=&quot;font-size: 14px;&quot;&gt;1&lt;/font&gt;" style="text;html=1;align=center;verticalAlign=middle;resizable=0;points=[];autosize=1;strokeColor=none;fillColor=none;" parent="WIyWlLk6GJQsqaUBKTNV-1" vertex="1">
          <mxGeometry x="40" y="665" width="30" height="30" as="geometry" />
        </mxCell>
        <mxCell id="w-5dL875tliOIacc9Mum-18" value="&lt;font style=&quot;font-size: 14px;&quot;&gt;1&lt;/font&gt;" style="text;html=1;align=center;verticalAlign=middle;resizable=0;points=[];autosize=1;strokeColor=none;fillColor=none;" parent="WIyWlLk6GJQsqaUBKTNV-1" vertex="1">
          <mxGeometry x="110" y="370" width="30" height="30" as="geometry" />
        </mxCell>
        <mxCell id="w-5dL875tliOIacc9Mum-19" value="&lt;font style=&quot;font-size: 14px;&quot;&gt;1&lt;/font&gt;" style="text;html=1;align=center;verticalAlign=middle;resizable=0;points=[];autosize=1;strokeColor=none;fillColor=none;" parent="WIyWlLk6GJQsqaUBKTNV-1" vertex="1">
          <mxGeometry x="290" y="370" width="30" height="30" as="geometry" />
        </mxCell>
        <mxCell id="w-5dL875tliOIacc9Mum-20" value="&lt;font style=&quot;font-size: 14px;&quot;&gt;1&lt;/font&gt;" style="text;html=1;align=center;verticalAlign=middle;resizable=0;points=[];autosize=1;strokeColor=none;fillColor=none;" parent="WIyWlLk6GJQsqaUBKTNV-1" vertex="1">
          <mxGeometry x="770" y="170" width="30" height="30" as="geometry" />
        </mxCell>
        <mxCell id="w-5dL875tliOIacc9Mum-21" value="&lt;font style=&quot;font-size: 14px;&quot;&gt;N&lt;/font&gt;" style="text;html=1;align=center;verticalAlign=middle;resizable=0;points=[];autosize=1;strokeColor=none;fillColor=none;" parent="WIyWlLk6GJQsqaUBKTNV-1" vertex="1">
          <mxGeometry x="1490" y="680" width="30" height="30" as="geometry" />
        </mxCell>
        <mxCell id="w-5dL875tliOIacc9Mum-22" value="&lt;font style=&quot;font-size: 14px;&quot;&gt;N&lt;/font&gt;" style="text;html=1;align=center;verticalAlign=middle;resizable=0;points=[];autosize=1;strokeColor=none;fillColor=none;" parent="WIyWlLk6GJQsqaUBKTNV-1" vertex="1">
          <mxGeometry x="1610" y="665" width="30" height="30" as="geometry" />
        </mxCell>
        <mxCell id="w-5dL875tliOIacc9Mum-23" value="&lt;font style=&quot;font-size: 14px;&quot;&gt;N&lt;/font&gt;" style="text;html=1;align=center;verticalAlign=middle;resizable=0;points=[];autosize=1;strokeColor=none;fillColor=none;" parent="WIyWlLk6GJQsqaUBKTNV-1" vertex="1">
          <mxGeometry x="700" y="570" width="30" height="30" as="geometry" />
        </mxCell>
        <mxCell id="w-5dL875tliOIacc9Mum-24" value="&lt;font style=&quot;font-size: 14px;&quot;&gt;N&lt;/font&gt;" style="text;html=1;align=center;verticalAlign=middle;resizable=0;points=[];autosize=1;strokeColor=none;fillColor=none;" parent="WIyWlLk6GJQsqaUBKTNV-1" vertex="1">
          <mxGeometry x="520" y="570" width="30" height="30" as="geometry" />
        </mxCell>
        <mxCell id="w-5dL875tliOIacc9Mum-25" value="&lt;font style=&quot;font-size: 14px;&quot;&gt;N&lt;/font&gt;" style="text;html=1;align=center;verticalAlign=middle;resizable=0;points=[];autosize=1;strokeColor=none;fillColor=none;" parent="WIyWlLk6GJQsqaUBKTNV-1" vertex="1">
          <mxGeometry x="400" y="760" width="30" height="30" as="geometry" />
        </mxCell>
        <mxCell id="w-5dL875tliOIacc9Mum-26" value="&lt;font style=&quot;font-size: 14px;&quot;&gt;1&lt;/font&gt;" style="text;html=1;align=center;verticalAlign=middle;resizable=0;points=[];autosize=1;strokeColor=none;fillColor=none;" parent="WIyWlLk6GJQsqaUBKTNV-1" vertex="1">
          <mxGeometry x="1250" y="390" width="30" height="30" as="geometry" />
        </mxCell>
        <mxCell id="w-5dL875tliOIacc9Mum-27" value="&lt;font style=&quot;font-size: 14px;&quot;&gt;1&lt;/font&gt;" style="text;html=1;align=center;verticalAlign=middle;resizable=0;points=[];autosize=1;strokeColor=none;fillColor=none;" parent="WIyWlLk6GJQsqaUBKTNV-1" vertex="1">
          <mxGeometry x="1130" y="460" width="30" height="30" as="geometry" />
        </mxCell>
        <mxCell id="w-5dL875tliOIacc9Mum-28" value="&lt;font style=&quot;font-size: 14px;&quot;&gt;1&lt;/font&gt;" style="text;html=1;align=center;verticalAlign=middle;resizable=0;points=[];autosize=1;strokeColor=none;fillColor=none;" parent="WIyWlLk6GJQsqaUBKTNV-1" vertex="1">
          <mxGeometry x="150" y="665" width="30" height="30" as="geometry" />
        </mxCell>
        <mxCell id="w-5dL875tliOIacc9Mum-29" value="&lt;font style=&quot;font-size: 14px;&quot;&gt;1&lt;/font&gt;" style="text;html=1;align=center;verticalAlign=middle;resizable=0;points=[];autosize=1;strokeColor=none;fillColor=none;" parent="WIyWlLk6GJQsqaUBKTNV-1" vertex="1">
          <mxGeometry x="165" y="750" width="30" height="30" as="geometry" />
        </mxCell>
        <mxCell id="w-5dL875tliOIacc9Mum-33" value="&lt;font style=&quot;font-size: 14px;&quot;&gt;N&lt;/font&gt;" style="text;html=1;align=center;verticalAlign=middle;resizable=0;points=[];autosize=1;strokeColor=none;fillColor=none;" parent="WIyWlLk6GJQsqaUBKTNV-1" vertex="1">
          <mxGeometry x="180" y="1085" width="30" height="30" as="geometry" />
        </mxCell>
        <mxCell id="w-5dL875tliOIacc9Mum-34" value="&lt;font style=&quot;font-size: 14px;&quot;&gt;N&lt;/font&gt;" style="text;html=1;align=center;verticalAlign=middle;resizable=0;points=[];autosize=1;strokeColor=none;fillColor=none;" parent="WIyWlLk6GJQsqaUBKTNV-1" vertex="1">
          <mxGeometry x="1290" y="820" width="30" height="30" as="geometry" />
        </mxCell>
        <mxCell id="w-5dL875tliOIacc9Mum-39" value="&lt;font style=&quot;font-size: 14px;&quot;&gt;1&lt;/font&gt;" style="text;html=1;align=center;verticalAlign=middle;resizable=0;points=[];autosize=1;strokeColor=none;fillColor=none;" parent="WIyWlLk6GJQsqaUBKTNV-1" vertex="1">
          <mxGeometry x="110" y="170" width="30" height="30" as="geometry" />
        </mxCell>
        <mxCell id="w-5dL875tliOIacc9Mum-40" value="&lt;font style=&quot;font-size: 14px;&quot;&gt;M&lt;/font&gt;" style="text;html=1;align=center;verticalAlign=middle;resizable=0;points=[];autosize=1;strokeColor=none;fillColor=none;" parent="WIyWlLk6GJQsqaUBKTNV-1" vertex="1">
          <mxGeometry x="980" y="1050" width="40" height="30" as="geometry" />
        </mxCell>
        <mxCell id="w-5dL875tliOIacc9Mum-41" value="&lt;font style=&quot;font-size: 14px;&quot;&gt;M&lt;/font&gt;" style="text;html=1;align=center;verticalAlign=middle;resizable=0;points=[];autosize=1;strokeColor=none;fillColor=none;" parent="WIyWlLk6GJQsqaUBKTNV-1" vertex="1">
          <mxGeometry x="670" y="910" width="40" height="30" as="geometry" />
        </mxCell>
        <mxCell id="w-5dL875tliOIacc9Mum-42" value="&lt;font style=&quot;font-size: 14px;&quot;&gt;M&lt;/font&gt;" style="text;html=1;align=center;verticalAlign=middle;resizable=0;points=[];autosize=1;strokeColor=none;fillColor=none;" parent="WIyWlLk6GJQsqaUBKTNV-1" vertex="1">
          <mxGeometry x="780" y="910" width="40" height="30" as="geometry" />
        </mxCell>
        <mxCell id="w-5dL875tliOIacc9Mum-44" value="&lt;font style=&quot;font-size: 14px;&quot;&gt;1&lt;/font&gt;" style="text;html=1;align=center;verticalAlign=middle;resizable=0;points=[];autosize=1;strokeColor=none;fillColor=none;" parent="WIyWlLk6GJQsqaUBKTNV-1" vertex="1">
          <mxGeometry x="340" y="960" width="30" height="30" as="geometry" />
        </mxCell>
        <mxCell id="w-5dL875tliOIacc9Mum-46" value="&lt;font style=&quot;font-size: 14px;&quot;&gt;N&lt;/font&gt;" style="text;html=1;align=center;verticalAlign=middle;resizable=0;points=[];autosize=1;strokeColor=none;fillColor=none;" parent="WIyWlLk6GJQsqaUBKTNV-1" vertex="1">
          <mxGeometry x="40" y="990" width="30" height="30" as="geometry" />
        </mxCell>
        <mxCell id="w-5dL875tliOIacc9Mum-49" value="&lt;font style=&quot;font-size: 14px;&quot;&gt;M&lt;/font&gt;" style="text;html=1;align=center;verticalAlign=middle;resizable=0;points=[];autosize=1;strokeColor=none;fillColor=none;" parent="WIyWlLk6GJQsqaUBKTNV-1" vertex="1">
          <mxGeometry x="460" y="990" width="40" height="30" as="geometry" />
        </mxCell>
        <mxCell id="w-5dL875tliOIacc9Mum-50" value="&lt;font style=&quot;font-size: 14px;&quot;&gt;1&lt;/font&gt;" style="text;html=1;align=center;verticalAlign=middle;resizable=0;points=[];autosize=1;strokeColor=none;fillColor=none;" parent="WIyWlLk6GJQsqaUBKTNV-1" vertex="1">
          <mxGeometry x="1480" y="820" width="30" height="30" as="geometry" />
        </mxCell>
        <mxCell id="XBsoK3pHsKmf2cSNkZa1-0" value="id_productos" style="ellipse;whiteSpace=wrap;html=1;fillColor=#f0a30a;fontColor=#000000;strokeColor=#BD7000;" vertex="1" parent="WIyWlLk6GJQsqaUBKTNV-1">
          <mxGeometry x="580" y="500" width="100" height="40" as="geometry" />
        </mxCell>
        <mxCell id="XBsoK3pHsKmf2cSNkZa1-1" value="" style="edgeStyle=orthogonalEdgeStyle;rounded=0;html=1;jettySize=auto;orthogonalLoop=1;fontSize=11;endArrow=block;endFill=0;endSize=8;strokeWidth=1;shadow=0;labelBackgroundColor=none;entryX=0.5;entryY=0;entryDx=0;entryDy=0;fillColor=#b1ddf0;strokeColor=#10739e;" edge="1" parent="WIyWlLk6GJQsqaUBKTNV-1" source="XBsoK3pHsKmf2cSNkZa1-0" target="MHmjIFbe15PuZ7v1ZE7H-75">
          <mxGeometry y="10" relative="1" as="geometry">
            <mxPoint as="offset" />
            <mxPoint x="650" y="550" as="sourcePoint" />
            <mxPoint x="640.53" y="600" as="targetPoint" />
          </mxGeometry>
        </mxCell>
        <mxCell id="XBsoK3pHsKmf2cSNkZa1-2" value="&lt;p style=&quot;margin-left: 0cm;&quot; align=&quot;center&quot; class=&quot;MsoSignature&quot;&gt;&lt;span style=&quot;color: rgb(56, 112, 38);&quot;&gt;&lt;font style=&quot;font-size: 36px;&quot;&gt;&lt;u&gt;Diagrama Entidad-Relación:&lt;/u&gt;&lt;/font&gt;&lt;/span&gt;&lt;/p&gt;" style="text;html=1;align=center;verticalAlign=middle;resizable=0;points=[];autosize=1;strokeColor=none;fillColor=none;" vertex="1" parent="WIyWlLk6GJQsqaUBKTNV-1">
          <mxGeometry x="595" y="-7" width="470" height="80" as="geometry" />
        </mxCell>
        <mxCell id="XBsoK3pHsKmf2cSNkZa1-6" value="" style="endArrow=classic;startArrow=classic;html=1;rounded=0;entryX=1;entryY=0.5;entryDx=0;entryDy=0;exitX=0.25;exitY=1;exitDx=0;exitDy=0;strokeColor=#0E8088;strokeWidth=4;" edge="1" parent="WIyWlLk6GJQsqaUBKTNV-1" source="dYBJ2h_Ycq64x_hKK8hy-11" target="XBsoK3pHsKmf2cSNkZa1-4">
          <mxGeometry width="50" height="50" relative="1" as="geometry">
            <mxPoint x="710" y="890" as="sourcePoint" />
            <mxPoint x="390" y="1010" as="targetPoint" />
            <Array as="points">
              <mxPoint x="710" y="980" />
            </Array>
          </mxGeometry>
        </mxCell>
        <mxCell id="XBsoK3pHsKmf2cSNkZa1-4" value="Recepcion y devolucion" style="rhombus;whiteSpace=wrap;html=1;shadow=0;fontFamily=Helvetica;fontSize=12;align=center;strokeWidth=1;spacing=6;spacingTop=-4;fillColor=#60a917;fontColor=#ffffff;strokeColor=#2D7600;" vertex="1" parent="WIyWlLk6GJQsqaUBKTNV-1">
          <mxGeometry x="500" y="940" width="100" height="80" as="geometry" />
        </mxCell>
        <mxCell id="XBsoK3pHsKmf2cSNkZa1-7" value="" style="endArrow=classic;startArrow=classic;html=1;rounded=0;entryX=0;entryY=0.5;entryDx=0;entryDy=0;exitX=0.75;exitY=1;exitDx=0;exitDy=0;strokeColor=#0E8088;strokeWidth=4;" edge="1" parent="WIyWlLk6GJQsqaUBKTNV-1" source="dYBJ2h_Ycq64x_hKK8hy-11" target="XBsoK3pHsKmf2cSNkZa1-3">
          <mxGeometry width="50" height="50" relative="1" as="geometry">
            <mxPoint x="770" y="890" as="sourcePoint" />
            <mxPoint x="1090" y="1020" as="targetPoint" />
            <Array as="points">
              <mxPoint x="770" y="980" />
            </Array>
          </mxGeometry>
        </mxCell>
        <mxCell id="XBsoK3pHsKmf2cSNkZa1-3" value="Recepcion y devolucion" style="rhombus;whiteSpace=wrap;html=1;shadow=0;fontFamily=Helvetica;fontSize=12;align=center;strokeWidth=1;spacing=6;spacingTop=-4;fillColor=#60a917;fontColor=#ffffff;strokeColor=#2D7600;" vertex="1" parent="WIyWlLk6GJQsqaUBKTNV-1">
          <mxGeometry x="880" y="940" width="100" height="80" as="geometry" />
        </mxCell>
        <mxCell id="XBsoK3pHsKmf2cSNkZa1-8" value="" style="endArrow=classic;startArrow=classic;html=1;rounded=0;entryX=0.5;entryY=0;entryDx=0;entryDy=0;exitX=1;exitY=0.5;exitDx=0;exitDy=0;strokeColor=#0E8088;strokeWidth=4;" edge="1" parent="WIyWlLk6GJQsqaUBKTNV-1" source="XBsoK3pHsKmf2cSNkZa1-3" target="MHmjIFbe15PuZ7v1ZE7H-2">
          <mxGeometry width="50" height="50" relative="1" as="geometry">
            <mxPoint x="1040" y="890" as="sourcePoint" />
            <mxPoint x="1150" y="980" as="targetPoint" />
            <Array as="points">
              <mxPoint x="1090" y="980" />
            </Array>
          </mxGeometry>
        </mxCell>
        <mxCell id="XBsoK3pHsKmf2cSNkZa1-9" value="Recepcion y devolucion" style="rhombus;whiteSpace=wrap;html=1;shadow=0;fontFamily=Helvetica;fontSize=12;align=center;strokeWidth=1;spacing=6;spacingTop=-4;fillColor=#60a917;fontColor=#ffffff;strokeColor=#2D7600;" vertex="1" parent="WIyWlLk6GJQsqaUBKTNV-1">
          <mxGeometry x="1200" y="690" width="100" height="80" as="geometry" />
        </mxCell>
        <mxCell id="XBsoK3pHsKmf2cSNkZa1-5" value="Recepcion y devolucion" style="rhombus;whiteSpace=wrap;html=1;shadow=0;fontFamily=Helvetica;fontSize=12;align=center;strokeWidth=1;spacing=6;spacingTop=-4;fillColor=#60a917;fontColor=#ffffff;strokeColor=#2D7600;" vertex="1" parent="WIyWlLk6GJQsqaUBKTNV-1">
          <mxGeometry x="495" y="1240" width="100" height="80" as="geometry" />
        </mxCell>
        <mxCell id="XBsoK3pHsKmf2cSNkZa1-11" value="" style="endArrow=classic;startArrow=classic;html=1;rounded=0;entryX=1;entryY=0.5;entryDx=0;entryDy=0;exitX=1;exitY=0.5;exitDx=0;exitDy=0;strokeColor=#0E8088;strokeWidth=4;" edge="1" parent="WIyWlLk6GJQsqaUBKTNV-1" source="XBsoK3pHsKmf2cSNkZa1-5" target="MHmjIFbe15PuZ7v1ZE7H-4">
          <mxGeometry width="50" height="50" relative="1" as="geometry">
            <mxPoint x="1210" y="1200" as="sourcePoint" />
            <mxPoint x="1320" y="1290" as="targetPoint" />
            <Array as="points">
              <mxPoint x="1500" y="1280" />
              <mxPoint x="1500" y="870" />
            </Array>
          </mxGeometry>
        </mxCell>
        <mxCell id="XBsoK3pHsKmf2cSNkZa1-12" value="" style="endArrow=classic;startArrow=classic;html=1;rounded=0;entryX=0;entryY=0.5;entryDx=0;entryDy=0;exitX=0;exitY=0.5;exitDx=0;exitDy=0;strokeColor=#0E8088;strokeWidth=4;" edge="1" parent="WIyWlLk6GJQsqaUBKTNV-1" source="XBsoK3pHsKmf2cSNkZa1-5" target="WIyWlLk6GJQsqaUBKTNV-3">
          <mxGeometry width="50" height="50" relative="1" as="geometry">
            <mxPoint x="60" y="1200" as="sourcePoint" />
            <mxPoint x="-50" y="1290" as="targetPoint" />
            <Array as="points">
              <mxPoint x="-40" y="1280" />
              <mxPoint x="-40" y="220" />
            </Array>
          </mxGeometry>
        </mxCell>
        <mxCell id="XBsoK3pHsKmf2cSNkZa1-13" value="Recepcion y devolucion" style="rhombus;whiteSpace=wrap;html=1;shadow=0;fontFamily=Helvetica;fontSize=12;align=center;strokeWidth=1;spacing=6;spacingTop=-4;fillColor=#60a917;fontColor=#ffffff;strokeColor=#2D7600;" vertex="1" parent="WIyWlLk6GJQsqaUBKTNV-1">
          <mxGeometry x="827" y="1140" width="100" height="80" as="geometry" />
        </mxCell>
        <mxCell id="XBsoK3pHsKmf2cSNkZa1-15" value="" style="endArrow=classic;startArrow=classic;html=1;rounded=0;entryX=0;entryY=0.5;entryDx=0;entryDy=0;exitX=0;exitY=0.5;exitDx=0;exitDy=0;strokeColor=#0E8088;strokeWidth=4;" edge="1" parent="WIyWlLk6GJQsqaUBKTNV-1" source="dYBJ2h_Ycq64x_hKK8hy-5" target="dYBJ2h_Ycq64x_hKK8hy-17">
          <mxGeometry width="50" height="50" relative="1" as="geometry">
            <mxPoint x="-20" y="1120" as="sourcePoint" />
            <mxPoint x="90" y="1210" as="targetPoint" />
            <Array as="points">
              <mxPoint x="-20" y="1120" />
              <mxPoint x="-20" y="1220" />
            </Array>
          </mxGeometry>
        </mxCell>
        <mxCell id="XBsoK3pHsKmf2cSNkZa1-16" value="Recepcion y devolucion" style="rhombus;whiteSpace=wrap;html=1;shadow=0;fontFamily=Helvetica;fontSize=12;align=center;strokeWidth=1;spacing=6;spacingTop=-4;fillColor=#60a917;fontColor=#ffffff;strokeColor=#2D7600;" vertex="1" parent="WIyWlLk6GJQsqaUBKTNV-1">
          <mxGeometry x="230" y="1130" width="100" height="80" as="geometry" />
        </mxCell>
        <mxCell id="XBsoK3pHsKmf2cSNkZa1-17" value="" style="endArrow=classic;startArrow=classic;html=1;rounded=0;entryX=1;entryY=0.5;entryDx=0;entryDy=0;strokeColor=#0E8088;strokeWidth=4;" edge="1" parent="WIyWlLk6GJQsqaUBKTNV-1" target="XBsoK3pHsKmf2cSNkZa1-16">
          <mxGeometry width="50" height="50" relative="1" as="geometry">
            <mxPoint x="610" y="1140" as="sourcePoint" />
            <mxPoint x="500" y="1200" as="targetPoint" />
            <Array as="points">
              <mxPoint x="610" y="1170" />
            </Array>
          </mxGeometry>
        </mxCell>
        <mxCell id="XBsoK3pHsKmf2cSNkZa1-19" value="Recepcion y devolucion" style="rhombus;whiteSpace=wrap;html=1;shadow=0;fontFamily=Helvetica;fontSize=12;align=center;strokeWidth=1;spacing=6;spacingTop=-4;fillColor=#60a917;fontColor=#ffffff;strokeColor=#2D7600;" vertex="1" parent="WIyWlLk6GJQsqaUBKTNV-1">
          <mxGeometry x="990" y="830" width="100" height="80" as="geometry" />
        </mxCell>
        <mxCell id="XBsoK3pHsKmf2cSNkZa1-21" value="" style="endArrow=classic;startArrow=classic;html=1;rounded=0;entryX=0;entryY=0.5;entryDx=0;entryDy=0;exitX=1;exitY=0.5;exitDx=0;exitDy=0;strokeColor=#0E8088;strokeWidth=4;" edge="1" parent="WIyWlLk6GJQsqaUBKTNV-1" source="XBsoK3pHsKmf2cSNkZa1-19" target="MHmjIFbe15PuZ7v1ZE7H-4">
          <mxGeometry width="50" height="50" relative="1" as="geometry">
            <mxPoint x="1105" y="870" as="sourcePoint" />
            <mxPoint x="1215" y="910" as="targetPoint" />
            <Array as="points">
              <mxPoint x="1215" y="870" />
            </Array>
          </mxGeometry>
        </mxCell>
        <mxCell id="XBsoK3pHsKmf2cSNkZa1-22" value="" style="endArrow=classic;startArrow=classic;html=1;rounded=0;exitX=1;exitY=0.5;exitDx=0;exitDy=0;strokeColor=#0E8088;strokeWidth=4;" edge="1" parent="WIyWlLk6GJQsqaUBKTNV-1" source="dYBJ2h_Ycq64x_hKK8hy-11">
          <mxGeometry width="50" height="50" relative="1" as="geometry">
            <mxPoint x="805" y="870" as="sourcePoint" />
            <mxPoint x="1000" y="870" as="targetPoint" />
            <Array as="points">
              <mxPoint x="930" y="870" />
            </Array>
          </mxGeometry>
        </mxCell>
        <mxCell id="XBsoK3pHsKmf2cSNkZa1-24" value="" style="edgeStyle=orthogonalEdgeStyle;rounded=0;html=1;jettySize=auto;orthogonalLoop=1;fontSize=11;endArrow=block;endFill=1;endSize=8;strokeWidth=4;shadow=0;labelBackgroundColor=none;fillColor=#b1ddf0;strokeColor=#10739e;entryX=0;entryY=0.5;entryDx=0;entryDy=0;" edge="1" parent="WIyWlLk6GJQsqaUBKTNV-1">
          <mxGeometry y="10" relative="1" as="geometry">
            <mxPoint as="offset" />
            <mxPoint x="480" y="860" as="sourcePoint" />
            <mxPoint x="480" y="860" as="targetPoint" />
            <Array as="points" />
          </mxGeometry>
        </mxCell>
        <mxCell id="XBsoK3pHsKmf2cSNkZa1-29" value="" style="endArrow=classic;startArrow=classic;html=1;rounded=0;entryX=0;entryY=0.5;entryDx=0;entryDy=0;exitX=1;exitY=0.5;exitDx=0;exitDy=0;strokeColor=#0E8088;strokeWidth=4;" edge="1" parent="WIyWlLk6GJQsqaUBKTNV-1" source="dYBJ2h_Ycq64x_hKK8hy-5" target="XBsoK3pHsKmf2cSNkZa1-16">
          <mxGeometry width="50" height="50" relative="1" as="geometry">
            <mxPoint x="160" y="1030" as="sourcePoint" />
            <mxPoint x="270" y="1070" as="targetPoint" />
            <Array as="points">
              <mxPoint x="190" y="1120" />
              <mxPoint x="190" y="1170" />
            </Array>
          </mxGeometry>
        </mxCell>
        <mxCell id="XBsoK3pHsKmf2cSNkZa1-30" value="&lt;font style=&quot;font-size: 14px;&quot;&gt;N&lt;/font&gt;" style="text;html=1;align=center;verticalAlign=middle;resizable=0;points=[];autosize=1;strokeColor=none;fillColor=none;" vertex="1" parent="WIyWlLk6GJQsqaUBKTNV-1">
          <mxGeometry x="110" y="1060" width="30" height="30" as="geometry" />
        </mxCell>
        <mxCell id="dYBJ2h_Ycq64x_hKK8hy-17" value="Factura y remito" style="rhombus;whiteSpace=wrap;html=1;shadow=0;fontFamily=Helvetica;fontSize=12;align=center;strokeWidth=1;spacing=6;spacingTop=-4;fillColor=#60a917;fontColor=#ffffff;strokeColor=#2D7600;" parent="WIyWlLk6GJQsqaUBKTNV-1" vertex="1">
          <mxGeometry x="390" y="1180" width="100" height="80" as="geometry" />
        </mxCell>
        <mxCell id="XBsoK3pHsKmf2cSNkZa1-37" value="" style="endArrow=classic;startArrow=classic;html=1;rounded=0;entryX=0.9;entryY=0.5;entryDx=0;entryDy=0;strokeColor=#0E8088;strokeWidth=4;entryPerimeter=0;exitX=0;exitY=0.5;exitDx=0;exitDy=0;" edge="1" parent="WIyWlLk6GJQsqaUBKTNV-1" source="XBsoK3pHsKmf2cSNkZa1-13" target="dYBJ2h_Ycq64x_hKK8hy-17">
          <mxGeometry width="50" height="50" relative="1" as="geometry">
            <mxPoint x="775" y="1190" as="sourcePoint" />
            <mxPoint x="495" y="1220" as="targetPoint" />
            <Array as="points">
              <mxPoint x="775" y="1180" />
              <mxPoint x="775" y="1220" />
            </Array>
          </mxGeometry>
        </mxCell>
        <mxCell id="XBsoK3pHsKmf2cSNkZa1-38" value="" style="endArrow=classic;startArrow=classic;html=1;rounded=0;entryX=0.5;entryY=0;entryDx=0;entryDy=0;strokeColor=#0E8088;strokeWidth=4;exitX=0.5;exitY=1;exitDx=0;exitDy=0;" edge="1" parent="WIyWlLk6GJQsqaUBKTNV-1" source="MHmjIFbe15PuZ7v1ZE7H-3" target="dYBJ2h_Ycq64x_hKK8hy-5">
          <mxGeometry width="50" height="50" relative="1" as="geometry">
            <mxPoint x="90" y="1050" as="sourcePoint" />
            <mxPoint x="89.29000000000002" y="1100" as="targetPoint" />
            <Array as="points">
              <mxPoint x="89.29000000000002" y="1070" />
            </Array>
          </mxGeometry>
        </mxCell>
        <mxCell id="XBsoK3pHsKmf2cSNkZa1-39" value="&lt;font style=&quot;font-size: 14px;&quot;&gt;N&lt;/font&gt;" style="text;html=1;align=center;verticalAlign=middle;resizable=0;points=[];autosize=1;strokeColor=none;fillColor=none;" vertex="1" parent="WIyWlLk6GJQsqaUBKTNV-1">
          <mxGeometry x="-10" y="1080" width="30" height="30" as="geometry" />
        </mxCell>
      </root>
    </mxGraphModel>
  </diagram>
</mxfile>
